<svg width="57" height="63" viewBox="0 0 57 63" fill="none" xmlns="http://www.w3.org/2000/svg">
<path d="M0 9.41379C0 7.01421 1.96306 5.06897 4.38461 5.06897H22.6538C25.0754 5.06897 27.0385 7.01421 27.0385 9.41379V28.2414C27.0385 30.641 25.0754 32.5862 22.6538 32.5862H4.38462C1.96306 32.5862 0 30.641 0 28.2414V9.41379Z" fill="#D9D9D9"/>
<path d="M0 9.41379C0 7.01421 1.96306 5.06897 4.38461 5.06897H22.6538C25.0754 5.06897 27.0385 7.01421 27.0385 9.41379V28.2414C27.0385 30.641 25.0754 32.5862 22.6538 32.5862H4.38462C1.96306 32.5862 0 30.641 0 28.2414V9.41379Z" fill="url(#paint0_linear_273_5)"/>
<path d="M0 39.8276C0 37.428 1.96306 35.4828 4.38461 35.4828H22.6538C25.0754 35.4828 27.0385 37.428 27.0385 39.8276V58.6552C27.0385 61.0548 25.0754 63 22.6538 63H4.38462C1.96306 63 0 61.0548 0 58.6552V39.8276Z" fill="#D9D9D9"/>
<path d="M0 39.8276C0 37.428 1.96306 35.4828 4.38461 35.4828H22.6538C25.0754 35.4828 27.0385 37.428 27.0385 39.8276V58.6552C27.0385 61.0548 25.0754 63 22.6538 63H4.38462C1.96306 63 0 61.0548 0 58.6552V39.8276Z" fill="url(#paint1_linear_273_5)"/>
<path d="M29.9615 39.8276C29.9615 37.428 31.9246 35.4828 34.3462 35.4828H52.6154C55.0369 35.4828 57 37.428 57 39.8276V58.6552C57 61.0548 55.0369 63 52.6154 63H34.3462C31.9246 63 29.9615 61.0548 29.9615 58.6552V39.8276Z" fill="#D9D9D9"/>
<path d="M29.9615 39.8276C29.9615 37.428 31.9246 35.4828 34.3462 35.4828H52.6154C55.0369 35.4828 57 37.428 57 39.8276V58.6552C57 61.0548 55.0369 63 52.6154 63H34.3462C31.9246 63 29.9615 61.0548 29.9615 58.6552V39.8276Z" fill="url(#paint2_linear_273_5)"/>
<path d="M46.1633 5.06897C46.3488 5.58741 46.7411 6.04286 47.3394 6.2959L49.1442 7.05964L49.9157 8.84877C50.6558 10.5673 53.1135 10.5673 53.8536 8.84877L54.6243 7.05964L55.8889 6.52431C56.5796 7.29221 57 8.30416 57 9.41379V28.2414C57 30.641 55.0369 32.5862 52.6154 32.5862H34.3462C31.9246 32.5862 29.9615 30.641 29.9615 28.2414V9.41379C29.9615 7.01421 31.9246 5.06897 34.3462 5.06897H46.1633Z" fill="#D9D9D9"/>
<path d="M46.1633 5.06897C46.3488 5.58741 46.7411 6.04286 47.3394 6.2959L49.1442 7.05964L49.9157 8.84877C50.6558 10.5673 53.1135 10.5673 53.8536 8.84877L54.6243 7.05964L55.8889 6.52431C56.5796 7.29221 57 8.30416 57 9.41379V28.2414C57 30.641 55.0369 32.5862 52.6154 32.5862H34.3462C31.9246 32.5862 29.9615 30.641 29.9615 28.2414V9.41379C29.9615 7.01421 31.9246 5.06897 34.3462 5.06897H46.1633Z" fill="url(#paint3_linear_273_5)"/>
<path d="M52.6154 5.06897C53.3105 5.06897 53.9675 5.22988 54.5515 5.51519L53.7615 5.84968C53.6005 5.91778 53.472 6.04522 53.4032 6.20467L52.5098 8.28091L52.4598 8.37638C52.1798 8.82396 51.4798 8.79211 51.2595 8.28091L50.366 6.20467C50.2972 6.04519 50.1687 5.91783 50.0077 5.84968L48.1601 5.06897H52.6154Z" fill="#D9D9D9"/>
<path d="M52.6154 5.06897C53.3105 5.06897 53.9675 5.22988 54.5515 5.51519L53.7615 5.84968C53.6005 5.91778 53.472 6.04522 53.4032 6.20467L52.5098 8.28091L52.4598 8.37638C52.1798 8.82396 51.4798 8.79211 51.2595 8.28091L50.366 6.20467C50.2972 6.04519 50.1687 5.91783 50.0077 5.84968L48.1601 5.06897H52.6154Z" fill="url(#paint4_linear_273_5)"/>
<path d="M51.2596 0.409078C51.4945 -0.136358 52.2747 -0.13636 52.5096 0.409077L53.4035 2.48468C53.4723 2.64437 53.6006 2.77157 53.7618 2.83972L55.8564 3.72548C56.4068 3.95825 56.4068 4.73141 55.8564 4.96417L53.7615 5.84968C53.6005 5.91778 53.472 6.04522 53.4032 6.20467L52.5098 8.28091C52.2749 8.82635 51.4944 8.82635 51.2595 8.28091L50.366 6.20467C50.2972 6.04519 50.1687 5.91783 50.0077 5.84968L47.9128 4.96417C47.3624 4.73141 47.3624 3.95825 47.9128 3.72548L50.0074 2.83972C50.1686 2.77157 50.2969 2.64437 50.3657 2.48468L51.2596 0.409078Z" fill="#D9D9D9"/>
<path d="M51.2596 0.409078C51.4945 -0.136358 52.2747 -0.13636 52.5096 0.409077L53.4035 2.48468C53.4723 2.64437 53.6006 2.77157 53.7618 2.83972L55.8564 3.72548C56.4068 3.95825 56.4068 4.73141 55.8564 4.96417L53.7615 5.84968C53.6005 5.91778 53.472 6.04522 53.4032 6.20467L52.5098 8.28091C52.2749 8.82635 51.4944 8.82635 51.2595 8.28091L50.366 6.20467C50.2972 6.04519 50.1687 5.91783 50.0077 5.84968L47.9128 4.96417C47.3624 4.73141 47.3624 3.95825 47.9128 3.72548L50.0074 2.83972C50.1686 2.77157 50.2969 2.64437 50.3657 2.48468L51.2596 0.409078Z" fill="url(#paint5_linear_273_5)"/>
<defs>
<linearGradient id="paint0_linear_273_5" x1="57" y1="0" x2="-6.73278" y2="55.8169" gradientUnits="userSpaceOnUse">
<stop stop-color="#6325CF"/>
<stop offset="1" stop-color="#3A1183"/>
</linearGradient>
<linearGradient id="paint1_linear_273_5" x1="57" y1="0" x2="-6.73278" y2="55.8169" gradientUnits="userSpaceOnUse">
<stop stop-color="#6325CF"/>
<stop offset="1" stop-color="#3A1183"/>
</linearGradient>
<linearGradient id="paint2_linear_273_5" x1="57" y1="0" x2="-6.73278" y2="55.8169" gradientUnits="userSpaceOnUse">
<stop stop-color="#6325CF"/>
<stop offset="1" stop-color="#3A1183"/>
</linearGradient>
<linearGradient id="paint3_linear_273_5" x1="57" y1="0" x2="-6.73278" y2="55.8169" gradientUnits="userSpaceOnUse">
<stop stop-color="#6325CF"/>
<stop offset="1" stop-color="#3A1183"/>
</linearGradient>
<linearGradient id="paint4_linear_273_5" x1="57" y1="0" x2="-6.73278" y2="55.8169" gradientUnits="userSpaceOnUse">
<stop stop-color="#6325CF"/>
<stop offset="1" stop-color="#3A1183"/>
</linearGradient>
<linearGradient id="paint5_linear_273_5" x1="57" y1="0" x2="-6.73278" y2="55.8169" gradientUnits="userSpaceOnUse">
<stop stop-color="#6325CF"/>
<stop offset="1" stop-color="#3A1183"/>
</linearGradient>
</defs>
</svg>
