<svg width="62" height="63" viewBox="0 0 62 63" fill="none" xmlns="http://www.w3.org/2000/svg">
<path fill-rule="evenodd" clip-rule="evenodd" d="M20.9292 34.8148C19.6186 32.774 16.6424 32.774 15.3318 34.8148L0.535468 57.8547C-0.890947 60.0759 0.699576 62.9999 3.33416 62.9999L58.6661 62.9938C61.293 62.9938 62.8846 60.0853 61.4738 57.8633L40.5152 24.8591C40.4138 24.6994 40.3022 24.552 40.1821 24.4171V18.7748H52.6899C53.972 18.7748 54.7726 17.3824 54.1302 16.2698L51.4825 11.6838C51.1839 11.1666 51.1839 10.5287 51.4825 10.0115L54.1302 5.42557C54.7726 4.31299 53.972 2.92053 52.6899 2.92053H40.1821V2.50331C40.1821 1.12077 39.0644 0 37.6857 0C36.3069 0 35.1893 1.12077 35.1893 2.50331V24.4674C35.0857 24.5884 34.9889 24.719 34.9 24.8591L24.6884 40.6683L20.9292 34.8148ZM40.9232 38.8113C41.635 38.652 42.4081 38.7245 43.1441 38.9017C43.7447 39.0464 44.339 39.2655 44.8835 39.5052L37.7076 28.205L28.1844 42.9564C29.3322 42.6095 30.7687 42.3202 31.9453 42.5654C32.9479 42.7744 33.5845 43.4135 34.1144 43.9454C34.15 43.9811 34.1851 44.0164 34.2198 44.051C34.7902 44.6196 35.2644 45.0345 36.0352 45.0598C36.6551 45.08 37.0426 44.8287 37.3509 44.3956C37.6827 43.9295 37.9059 43.2733 38.1489 42.5141C38.1627 42.4709 38.1766 42.4274 38.1905 42.3836C38.4127 41.6872 38.6567 40.9224 39.0289 40.287C39.4343 39.5952 40.0155 39.0145 40.9232 38.8113ZM20.3043 46.9236C19.7387 46.5535 19.0432 46.3108 18.1306 46.3108C16.3555 46.3109 14.816 47.0365 13.5051 47.7459C13.278 47.8687 13.0603 47.9897 12.8497 48.1067C12.439 48.3349 12.0549 48.5484 11.6791 48.7327C11.5143 48.8135 11.3558 48.8862 11.203 48.9497L18.1305 38.1623L25.2845 49.3024C24.8795 49.4845 24.4673 49.6153 23.9295 49.6494C22.8983 49.7148 22.4038 49.1209 21.6988 48.2744L21.6297 48.1916C21.2725 47.7633 20.859 47.2867 20.3043 46.9236Z" fill="url(#paint0_linear_273_4)"/>
<defs>
<linearGradient id="paint0_linear_273_4" x1="62" y1="0" x2="-2.21831" y2="61.1758" gradientUnits="userSpaceOnUse">
<stop stop-color="#6325CF"/>
<stop offset="1" stop-color="#3A1183"/>
</linearGradient>
</defs>
</svg>
