<svg width="14" height="14" viewBox="0 0 14 14" fill="none" xmlns="http://www.w3.org/2000/svg">
<path d="M10.8468 2.53275C10.3831 2.53275 10.0068 2.90891 10.0068 3.3728C10.0068 3.83654 10.3831 4.21286 10.8468 4.21286C11.3106 4.21282 11.6869 3.83652 11.6869 3.3728C11.6869 2.90908 11.3106 2.53279 10.8468 2.53275Z" fill="white"/>
<path fill-rule="evenodd" clip-rule="evenodd" d="M7.10999 3.51433C5.12478 3.51441 3.51519 5.12437 3.51519 7.10952C3.51532 9.09457 5.12486 10.703 7.10999 10.7031C9.09519 10.7031 10.7041 9.09462 10.7043 7.10952C10.7043 5.12431 9.09527 3.51433 7.10999 3.51433ZM9.44353 7.10929C9.44353 5.82057 8.39876 4.77598 7.11014 4.77598C5.82138 4.77598 4.77675 5.82057 4.77675 7.10929C4.77675 8.39785 5.82138 9.44259 7.11014 9.44259C8.39876 9.44259 9.44353 8.39785 9.44353 7.10929Z" fill="white"/>
<path fill-rule="evenodd" clip-rule="evenodd" d="M6.99947 0C5.0996 3.78152e-06 4.86089 0.00822205 4.11444 0.0421896C3.36934 0.0763085 2.86062 0.194368 2.41558 0.367423C1.95517 0.546213 1.56457 0.785675 1.17548 1.1749C0.786143 1.56394 0.546808 1.95424 0.367437 2.41442C0.193911 2.85959 0.0757491 3.36845 0.0421912 4.11322C0.00879557 4.85985 5.52129e-07 5.09884 0 6.99973C0 8.90079 0.00835697 9.13906 0.0421912 9.88571C0.0764765 10.6308 0.194492 11.1395 0.367437 11.5845C0.546377 12.0449 0.785722 12.4355 1.17494 12.8246C1.56386 13.2139 1.95444 13.4538 2.41451 13.6326C2.85987 13.8057 3.36889 13.9232 4.11391 13.9573C4.8605 13.9913 5.09912 14 7 14C8.90105 14 9.139 13.9912 9.88556 13.9573C10.6307 13.9232 11.1401 13.8056 11.5855 13.6326C12.0457 13.4538 12.4356 13.2138 12.8245 12.8246C13.2139 12.4355 13.4532 12.0448 13.6326 11.5845C13.8046 11.1393 13.9228 10.6306 13.9578 9.88571C13.9914 9.13906 14 8.90079 14 6.99973C14 5.09895 13.9913 4.86028 13.9578 4.11375C13.9228 3.36855 13.8047 2.8595 13.6326 2.41442C13.4532 1.95415 13.2138 1.5639 12.8245 1.1749C12.4351 0.785535 12.0458 0.546065 11.585 0.367423C11.1387 0.194363 10.6296 0.0763092 9.88449 0.0421896C9.13808 0.008224 8.90019 2.59442e-06 6.99947 0ZM7.10999 1.37067C6.87642 1.37067 6.66827 1.37038 6.48193 1.37067V1.36907C5.17753 1.37052 4.92724 1.37942 4.28158 1.40858C3.59906 1.43994 3.22842 1.55372 2.98166 1.64997C2.65501 1.77713 2.42182 1.92889 2.17682 2.17387C1.93183 2.41886 1.77978 2.65203 1.6529 2.97868C1.5571 3.2254 1.44273 3.59569 1.41151 4.27801C1.37796 5.0159 1.37145 5.23665 1.37145 7.10578C1.37145 8.97491 1.37797 9.19684 1.41151 9.93462C1.44256 10.617 1.5571 10.9875 1.6529 11.234C1.78007 11.5608 1.93182 11.7938 2.17682 12.0388C2.42177 12.2837 2.65505 12.4353 2.98166 12.5621C3.22856 12.6579 3.59906 12.772 4.28158 12.8035C5.01942 12.837 5.24101 12.8446 7.10999 12.8446C8.97904 12.8446 9.201 12.8371 9.93893 12.8035C10.6213 12.7723 10.9919 12.6584 11.2383 12.5621C11.5651 12.4352 11.7981 12.2838 12.0432 12.0388C12.2881 11.794 12.4397 11.5611 12.5665 11.2345C12.6623 10.988 12.7767 10.6175 12.8079 9.93515C12.8415 9.19744 12.8485 8.97563 12.8485 7.10792C12.8485 5.23993 12.8415 5.01794 12.8079 4.28015C12.7769 3.59771 12.6623 3.22727 12.5665 2.98081C12.4394 2.65416 12.2881 2.42046 12.0432 2.17547C11.7983 1.93048 11.565 1.77898 11.2383 1.65211C10.9916 1.55632 10.6212 1.44247 9.93893 1.41125C9.20085 1.37771 8.97904 1.37067 7.10999 1.37067Z" fill="white"/>
</svg>
