<svg width="13" height="13" viewBox="0 0 13 13" fill="none" xmlns="http://www.w3.org/2000/svg">
<path d="M3.05268 0.05001C3.00045 0.0812661 2.9221 0.153155 2.87857 0.212542C2.80312 0.318813 2.80022 0.334441 2.80022 0.750148C2.80022 1.16585 2.80312 1.18148 2.87857 1.28775C3.00915 1.47217 3.09911 1.5003 3.58371 1.5003H4.01027L4.17857 1.31901V0.859544C4.17857 0.337567 4.15246 0.240673 3.98125 0.10002C3.88259 0.0187538 3.85938 0.0156282 3.51406 0.00625133C3.21808 9.57053e-08 3.13103 0.00937694 3.05268 0.05001Z" fill="white"/>
<path d="M9.08839 0.0531355C9.03616 0.081266 8.95781 0.153155 8.91429 0.212542C8.83884 0.318813 8.83594 0.337567 8.82723 0.818911L8.81853 1.31276L8.90558 1.40653L8.98973 1.5003H9.4163C9.90089 1.5003 9.99085 1.47217 10.1214 1.28775C10.1969 1.18148 10.1998 1.16585 10.1998 0.750148C10.1998 0.334441 10.1969 0.318813 10.1214 0.212542C9.99665 0.0375074 9.89219 0 9.51205 0C9.2683 0 9.16094 0.0156281 9.08839 0.0531355Z" fill="white"/>
<path d="M4.33527 1.52843C4.19308 1.59406 4.17857 1.66283 4.17857 2.2692C4.17857 2.83806 4.17857 2.84118 4.10312 2.93495C4.0625 2.98809 4.00156 3.03185 3.96964 3.03185C3.85357 3.03185 3.54888 3.13187 3.35156 3.23814C2.84375 3.50694 2.48393 3.99454 2.35045 4.60403C2.26629 4.98223 2.26049 4.98536 1.70335 5.01036C1.18393 5.03537 1.10268 5.02287 1.00982 4.91659C0.945982 4.84471 0.94308 4.81032 0.928571 4.3321C0.911161 3.77262 0.89375 3.71323 0.716741 3.59133C0.644196 3.54132 0.586161 3.53195 0.449777 3.5382C0.240848 3.5507 0.142188 3.61634 0.0580357 3.80075C0.00290179 3.91952 0 3.98829 0 5.01036C0 6.1981 0.00290179 6.21998 0.168304 6.38876C0.249554 6.47003 0.287277 6.48253 0.499107 6.50128C0.632589 6.51066 0.768973 6.53879 0.800893 6.55754C0.887946 6.60755 0.922768 6.72633 0.937277 7.01701C0.954688 7.43897 1.12299 7.72652 1.4567 7.90781C1.60469 7.98595 1.66853 8.00158 1.84263 8.00158C2.08638 8.00158 2.22277 8.04534 2.2721 8.1391C2.29821 8.18599 2.30982 8.55481 2.32143 9.48625C2.33594 10.7115 2.33884 10.774 2.39688 10.9115C2.48683 11.1209 2.64933 11.2991 2.84955 11.4085C3.00915 11.4929 3.05558 11.5023 3.29062 11.5023C3.72009 11.4991 3.71429 11.5116 3.71429 10.5021C3.71429 9.99885 3.72589 9.69254 3.74621 9.6519C3.82165 9.50187 3.79844 9.50187 6.4942 9.50187C8.21786 9.50187 9.04487 9.51125 9.1058 9.53625C9.27991 9.60189 9.28571 9.63628 9.28571 10.5021C9.28571 11.5085 9.28281 11.4991 9.70647 11.5023C9.93571 11.5023 9.99085 11.4898 10.1417 11.4148C10.3391 11.3116 10.5103 11.1272 10.6031 10.9115C10.6612 10.774 10.6641 10.7115 10.6786 9.47062C10.6873 8.75798 10.7047 8.15473 10.7192 8.12973C10.7656 8.05471 10.9339 8.00158 11.1371 8.00158C11.404 8.00158 11.5781 7.93281 11.7638 7.7484C11.967 7.54836 12.0482 7.35145 12.0627 7.01701C12.0685 6.87948 12.0801 6.7357 12.0888 6.6982C12.1092 6.58255 12.2281 6.52316 12.4951 6.50128C12.7127 6.48253 12.7504 6.47003 12.8317 6.38876C12.9971 6.21998 13 6.1981 13 5.01036C13 3.98829 12.9971 3.91952 12.942 3.80075C12.852 3.60696 12.7592 3.54757 12.5357 3.54757C12.3123 3.54757 12.2194 3.60696 12.1295 3.80075C12.0801 3.90702 12.0714 3.98829 12.0714 4.35711C12.0714 5.02912 12.054 5.04474 11.3112 5.02599C10.7859 5.01349 10.7134 4.98536 10.6699 4.76344C10.6089 4.45713 10.49 4.11644 10.3855 3.94453C10.2375 3.70073 9.92411 3.38504 9.70647 3.26002C9.53237 3.16 9.15223 3.03185 9.03616 3.03185C9.00134 3.03185 8.9375 2.98809 8.89688 2.93495C8.82143 2.84118 8.82143 2.83806 8.82143 2.25982V1.68158L8.73728 1.59094C8.66183 1.50967 8.63281 1.5003 8.46741 1.5003C7.85513 1.5003 7.42857 1.95351 7.42857 2.60676C7.42857 2.82556 7.37344 2.95058 7.25156 2.99747C7.12969 3.04435 5.87321 3.04435 5.75134 2.99747C5.61786 2.94746 5.58304 2.85994 5.56563 2.55363C5.53951 2.10979 5.35089 1.79098 5.00558 1.60657C4.83437 1.51905 4.45134 1.47529 4.33527 1.52843ZM4.43393 5.08538C4.47455 5.11663 4.53549 5.1854 4.56741 5.23228C4.62545 5.31355 4.62835 5.36043 4.62835 6.00118C4.62835 6.75446 4.62545 6.76071 4.42812 6.92011C4.31496 7.01076 4.04219 7.01076 3.92902 6.92011C3.7346 6.76696 3.72879 6.74195 3.72009 6.08557C3.71429 5.75426 3.71719 5.4417 3.72879 5.38544C3.74911 5.26041 3.87098 5.10101 3.98996 5.04474C4.10603 4.98536 4.33817 5.00724 4.43393 5.08538ZM9.07679 5.08538C9.11741 5.11663 9.17835 5.1854 9.21027 5.23228C9.2683 5.31355 9.27121 5.36043 9.27121 6.00118C9.27121 6.75446 9.2683 6.76071 9.07098 6.92011C8.95781 7.01076 8.68505 7.01076 8.57188 6.92011C8.37746 6.76696 8.37165 6.74195 8.36295 6.08557C8.35714 5.75426 8.36004 5.4417 8.37165 5.38544C8.39196 5.26041 8.51384 5.10101 8.63281 5.04474C8.74888 4.98536 8.98103 5.00724 9.07679 5.08538Z" fill="white"/>
<path d="M3.78683 11.6335C3.71138 11.7304 3.70848 11.7461 3.72009 12.0024C3.7404 12.4493 3.92321 12.7556 4.26562 12.9213C4.43683 13.0026 4.45714 13.0057 4.875 12.9963L5.30737 12.9869L5.40022 12.8932C5.54241 12.7494 5.57143 12.64 5.57143 12.2618C5.57143 11.8898 5.5221 11.7273 5.37411 11.6117C5.30156 11.5523 5.24353 11.5492 4.58192 11.5398L3.86808 11.5304L3.78683 11.6335Z" fill="white"/>
<path d="M7.70424 11.5648C7.61429 11.6054 7.51272 11.7211 7.4692 11.8336C7.41406 11.9742 7.41406 12.5619 7.4692 12.6994C7.48951 12.7556 7.55045 12.84 7.59978 12.8932L7.69263 12.9869L8.11339 12.9963C8.62701 13.0088 8.75179 12.9744 8.97813 12.7494C9.17255 12.5587 9.2596 12.3524 9.27991 12.043C9.29442 11.7773 9.27701 11.6804 9.19286 11.596C9.13192 11.5366 9.0942 11.5335 8.4471 11.5366C8.06987 11.5366 7.73616 11.5492 7.70424 11.5648Z" fill="white"/>
</svg>
