<svg width="14" height="14" viewBox="0 0 14 14" fill="none" xmlns="http://www.w3.org/2000/svg">
<path d="M0.20425 6.60962C1.58773 5.84758 3.13206 5.21154 4.57501 4.57228C7.05744 3.5252 9.54977 2.49627 12.0672 1.53834C12.557 1.37513 13.437 1.21554 13.5233 1.94138C13.476 2.96883 13.2817 3.99027 13.1483 5.0117C12.81 7.25793 12.4188 9.49648 12.0374 11.7353C11.906 12.4811 10.9718 12.8671 10.374 12.3898C8.93748 11.4195 7.48989 10.4587 6.0717 9.46577C5.60713 8.99375 6.03793 8.31585 6.45282 7.97876C7.636 6.81273 8.89077 5.82207 10.0121 4.5958C10.3146 3.86539 9.42088 4.48095 9.12607 4.66958C7.5063 5.7858 5.92616 6.97015 4.21842 7.95116C3.34609 8.43134 2.32939 8.02099 1.45747 7.75305C0.675695 7.42936 -0.469836 7.10315 0.20425 6.60962Z" fill="white"/>
</svg>
