<svg width="46" height="19" viewBox="0 0 46 19" fill="none" xmlns="http://www.w3.org/2000/svg">
<path d="M3.72253 19H14.8075C15.7577 19 16.6719 18.6352 17.3626 17.9804L22.3633 13.2391L24.3534 17.0129C24.9982 18.2354 26.2635 19 27.6418 19H39.203C40.8874 19 42.3617 17.8644 42.797 16.2315L43.6139 13.1672H38.8321L38.5447 14.4167H28.1415L26.4909 11.3111H44.1087L45.8716 4.69813C46.5036 2.32721 44.723 0 42.2776 0H31.1651C30.2169 0 29.3043 0.363369 28.6141 1.0159L23.5187 5.83279H30.1759L31.5168 4.58333H41.0911L40.2657 7.68891H21.5594L14.4597 14.4167H4.78875L5.62436 11.3111H12.4042C12.6073 11.3111 12.7722 11.1458 12.7723 10.9417V8.05832C12.7722 7.85419 12.6073 7.68892 12.4042 7.68891H6.599L7.4346 4.58333H17.8355L19.2364 7.30116L22.7068 4.09375L21.6181 2.0038C20.9765 0.772041 19.7061 0 18.321 0H6.85451C5.1766 7.76757e-06 3.70623 1.12714 3.26503 2.75179L0.132997 14.285C-0.511936 16.66 1.26988 19 3.72253 19Z" fill="white"/>
</svg>
