<svg width="21" height="21" viewBox="0 0 21 21" fill="none" xmlns="http://www.w3.org/2000/svg">
<path fill-rule="evenodd" clip-rule="evenodd" d="M17.4173 0.153143C18.4234 -0.0254024 19.3863 -0.0646868 20.1681 0.126018C20.3438 0.168208 20.5039 0.259314 20.63 0.388815C20.7546 0.51682 20.8408 0.677113 20.8789 0.851484C21.0625 1.65641 21.0244 2.62753 20.8453 3.64123C20.664 4.66779 20.3288 5.78872 19.8753 6.91391C18.9716 9.15609 17.5689 11.4853 15.8786 13.1669C15.3817 13.6667 14.8493 14.1296 14.2856 14.552C14.3225 15.4723 14.2175 16.4245 13.8424 17.2853L13.8421 17.2861C13.2343 18.6762 12.1394 19.549 11.0849 20.091C10.0334 20.6314 8.97651 20.8676 8.34934 20.9684C8.17198 20.9971 7.9904 20.9846 7.81863 20.9319C7.64687 20.8792 7.48953 20.7877 7.35876 20.6645C7.228 20.5413 7.12732 20.3896 7.0645 20.2213C7.00168 20.053 6.97841 19.8724 6.99648 19.6937C6.99669 19.6916 6.99692 19.6894 6.99715 19.6873L7.32753 16.6771C7.29408 16.6737 7.26063 16.6702 7.22721 16.6665C6.85908 16.6285 6.51545 16.4641 6.25483 16.2013C6.25424 16.2007 6.25364 16.2001 6.25304 16.1995L4.7878 14.7343C4.7872 14.7337 4.78659 14.7331 4.78599 14.7325C4.52328 14.472 4.35891 14.1286 4.32081 13.7606C4.31691 13.7255 4.31321 13.6903 4.30972 13.6551L1.29671 13.9859L1.29361 13.9862L1.29128 13.9865C1.1123 14.0048 0.931492 13.9817 0.762884 13.9189C0.594267 13.8561 0.442383 13.7553 0.318997 13.6244C0.19561 13.4934 0.104025 13.3358 0.0513478 13.1638C-0.00132835 12.9918 -0.0136821 12.8099 0.0152422 12.6323L0.0154601 12.631C0.118445 12.0058 0.355813 10.9505 0.897015 9.89963C1.43962 8.84602 2.31211 7.75189 3.70111 7.14116L3.7031 7.14029C4.56422 6.76463 5.52161 6.65981 6.44762 6.70024C6.87001 6.13855 7.33258 5.60801 7.83177 5.11282C9.51818 3.428 11.8826 2.02599 14.1396 1.12285C15.2723 0.669563 16.397 0.334233 17.4173 0.153143ZM14.6968 2.51549C12.5743 3.36484 10.3982 4.6688 8.89109 6.17481L8.8891 6.1768C8.35081 6.71067 7.85998 7.29035 7.42216 7.90929C7.2677 8.12764 7.00865 8.24721 6.74228 8.22311C5.82935 8.14051 4.98481 8.21798 4.30395 8.51469C3.32674 8.94467 2.67184 9.72954 2.23056 10.5864C1.89063 11.2465 1.69201 11.9225 1.57771 12.446L4.93317 12.0777C5.14387 12.0545 5.35452 12.1216 5.51301 12.2624C5.6715 12.4031 5.76304 12.6044 5.76499 12.8163C5.76738 13.0775 5.78307 13.3384 5.81197 13.598C5.81226 13.6006 5.81254 13.6032 5.81281 13.6058C5.81516 13.6292 5.82556 13.6509 5.84223 13.6674L5.84535 13.6705L7.31675 15.1419L7.3198 15.145C7.3363 15.1617 7.3581 15.1721 7.38144 15.1744C7.38425 15.1747 7.38706 15.175 7.38987 15.1753C7.64785 15.2041 7.90712 15.2198 8.16669 15.2223C8.37857 15.2244 8.57969 15.3159 8.72033 15.4744C8.86098 15.6329 8.92803 15.8435 8.90492 16.0541L8.53689 19.4073C9.06033 19.2945 9.73798 19.0967 10.3992 18.7568C11.2566 18.3162 12.0406 17.6617 12.4674 16.6858C12.7649 16.003 12.8423 15.1623 12.7639 14.2521C12.741 13.9863 12.861 13.7283 13.0791 13.5746C13.6997 13.1373 14.281 12.6466 14.8161 12.108L14.8193 12.1048C16.3335 10.599 17.6366 8.4557 18.4841 6.35315C18.9063 5.30562 19.2082 4.28579 19.3682 3.38027C19.4979 2.64627 19.5286 2.01874 19.473 1.52459C19.0075 1.4721 18.4014 1.50193 17.6795 1.63006C16.779 1.78987 15.754 2.09245 14.6968 2.51549ZM8.11096 19.4875C8.11066 19.4875 8.11037 19.4876 8.11007 19.4876L8.11075 19.4875C8.11082 19.4875 8.11089 19.4875 8.11096 19.4875ZM13.9142 5.84037C13.6667 5.84037 13.4247 5.91378 13.2189 6.05132C13.0131 6.18885 12.8526 6.38434 12.7579 6.61305C12.6632 6.84176 12.6384 7.09342 12.6867 7.33621C12.7351 7.57899 12.8543 7.802 13.0294 7.97702L12.4989 8.50757L13.03 7.97764C13.146 8.09393 13.2838 8.18618 13.4356 8.24912C13.5873 8.31207 13.75 8.34447 13.9142 8.34447C14.0785 8.34447 14.2412 8.31207 14.3929 8.24912C14.5446 8.18618 14.6825 8.09393 14.7985 7.97764L14.7991 7.97702C14.9742 7.802 15.0934 7.57899 15.1417 7.33621C15.19 7.09342 15.1653 6.84176 15.0706 6.61305C14.9758 6.38434 14.8154 6.18885 14.6096 6.05132C14.4038 5.91378 14.1618 5.84037 13.9142 5.84037ZM11.9686 9.03757C11.5838 8.65281 11.3218 8.16263 11.2156 7.62897C11.1094 7.0952 11.1638 6.54192 11.3721 6.0391C11.5803 5.53628 11.933 5.10651 12.3855 4.80414C12.838 4.50176 13.37 4.34037 13.9142 4.34037C14.4585 4.34037 14.9905 4.50176 15.443 4.80414C15.8955 5.10651 16.2482 5.53628 16.4564 6.0391C16.6647 6.54192 16.7191 7.0952 16.6129 7.62897C16.5067 8.16245 16.2448 8.65249 15.8603 9.03718C15.6049 9.29309 15.3016 9.49611 14.9677 9.63464C14.6337 9.77316 14.2758 9.84447 13.9142 9.84447C13.5527 9.84447 13.1947 9.77316 12.8608 9.63464C12.5271 9.49618 12.2239 9.29329 11.9686 9.03757Z" fill="#1A034A"/>
<path fill-rule="evenodd" clip-rule="evenodd" d="M4.3833 14.9004C4.43377 15.3115 4.1414 15.6857 3.73027 15.7362C3.42927 15.7731 3.14921 15.9095 2.93447 16.1236C2.86242 16.1962 2.74611 16.3955 2.63129 16.7714C2.5237 17.1237 2.44316 17.5426 2.38455 17.9582C2.348 18.2174 2.32097 18.4681 2.30111 18.6902C2.5234 18.6703 2.77424 18.6432 3.03364 18.6066C3.44935 18.548 3.86816 18.4674 4.22014 18.3597C4.59679 18.2445 4.79524 18.1279 4.86669 18.0564L4.86796 18.0552C5.0825 17.8415 5.2188 17.5618 5.25485 17.2612C5.30417 16.85 5.67754 16.5565 6.08881 16.6059C6.50008 16.6552 6.7935 17.0286 6.74418 17.4398C6.668 18.075 6.38007 18.6661 5.92684 19.1176C5.58511 19.4591 5.09019 19.6622 4.65889 19.7941C4.2026 19.9337 3.69864 20.0277 3.24324 20.0919C2.7844 20.1567 2.35559 20.1939 2.0427 20.2149C1.88572 20.2255 1.75663 20.2321 1.66597 20.2361C1.62061 20.2381 1.58478 20.2394 1.55981 20.2403C1.54732 20.2407 1.53753 20.241 1.53061 20.2412L1.52241 20.2414L1.51885 20.2415C1.51873 20.2415 1.51862 20.2415 1.49951 19.4918C0.749756 19.4727 0.749759 19.4725 0.749762 19.4724L0.749857 19.4689L0.750093 19.4607C0.750298 19.4538 0.750604 19.444 0.75103 19.4315C0.751883 19.4065 0.753221 19.3707 0.75521 19.3254C0.759186 19.2348 0.76578 19.1058 0.776343 18.9489C0.797398 18.6361 0.834558 18.2075 0.899242 17.7488C0.963445 17.2935 1.05733 16.7896 1.19672 16.3333C1.32861 15.9015 1.53154 15.4063 1.8725 15.0642L1.87377 15.063C2.32519 14.6122 2.91429 14.3251 3.54751 14.2474C3.95863 14.1969 4.33283 14.4893 4.3833 14.9004ZM1.49951 19.4918L0.749756 19.4727C0.744515 19.6781 0.823836 19.8768 0.969178 20.0221C1.11452 20.1674 1.31314 20.2468 1.51862 20.2415L1.49951 19.4918Z" fill="#1A034A"/>
</svg>
