<svg width="63" height="52" viewBox="0 0 63 52" fill="none" xmlns="http://www.w3.org/2000/svg">
<path d="M57.8573 0.172237L13.0948 13.6096C12.4221 13.8115 11.962 14.4263 11.962 15.1232V31.1614C11.962 31.8583 12.4221 32.4731 13.0948 32.6751L17.4937 33.9956L12.4017 46.9841C11.8766 48.3237 12.6637 49.8149 14.0731 50.1505L21.5653 51.9342C22.6978 52.2038 23.8615 51.6255 24.3216 50.5646L29.8931 37.7178L57.8573 46.1124C60.4177 46.881 63 44.9808 63 42.3281V3.95647C63 1.3038 60.4177 -0.59637 57.8573 0.172237Z" fill="url(#paint0_linear_273_6)"/>
<path d="M8.77215 28.2823V18.7931V16.0254C8.77215 15.1519 8.05807 14.4438 7.17722 14.4438H4.38608C1.96371 14.4438 0 16.3911 0 18.7931V28.2823C0 30.6843 1.96371 32.6315 4.38608 32.6315H7.17722C8.05807 32.6315 8.77215 31.9235 8.77215 31.05V28.2823Z" fill="url(#paint1_linear_273_6)"/>
<defs>
<linearGradient id="paint0_linear_273_6" x1="63" y1="0" x2="10.5986" y2="61.4538" gradientUnits="userSpaceOnUse">
<stop stop-color="#6325CF"/>
<stop offset="1" stop-color="#3A1183"/>
</linearGradient>
<linearGradient id="paint1_linear_273_6" x1="63" y1="0" x2="10.5986" y2="61.4538" gradientUnits="userSpaceOnUse">
<stop stop-color="#6325CF"/>
<stop offset="1" stop-color="#3A1183"/>
</linearGradient>
</defs>
</svg>
