<svg width="63" height="62" viewBox="0 0 63 62" fill="none" xmlns="http://www.w3.org/2000/svg">
<path d="M24.1552 3.81187C27.7384 -1.27062 35.2616 -1.27062 38.8448 3.81187L39.6914 5.01248C41.4837 7.55463 44.4583 8.99016 47.5592 8.80923L49.024 8.72358C55.2235 8.36185 59.9143 14.256 58.183 20.232L57.7743 21.6445C56.9083 24.6336 57.6429 27.8592 59.7174 30.1758L60.6974 31.2701C64.845 35.9015 63.1708 43.2518 57.4286 45.6213L56.0714 46.1809C53.1994 47.3661 51.1413 49.9526 50.6273 53.0221L50.3841 54.4722C49.3565 60.6092 42.5782 63.8805 37.1492 60.8592L35.866 60.1452C33.1505 58.6341 29.8487 58.634 27.1333 60.1452L25.8508 60.8592C20.4218 63.8806 13.6435 60.6092 12.6159 54.4722L12.3727 53.0221C11.8587 49.9525 9.79997 47.3661 6.92785 46.1809L5.5714 45.6213C-0.170845 43.2518 -1.84502 35.9015 2.30258 31.2701L3.28257 30.1758C5.35712 27.8592 6.09174 24.6336 5.22569 21.6445L4.81627 20.232C3.08505 14.2561 7.77585 8.36194 13.9753 8.72358L15.4408 8.80923C18.5416 8.99004 21.5157 7.55452 23.3078 5.01248L24.1552 3.81187ZM42.3077 24.4555C41.0403 23.3798 39.1473 23.5436 38.0801 24.821L30.2366 34.2118L26.2566 31.225C24.9275 30.2277 23.0484 30.5055 22.059 31.8453C21.0697 33.1851 21.3452 35.0796 22.6743 36.0769L28.9204 40.7642C30.1935 41.7195 31.9851 41.511 33.0073 40.2872L42.6695 28.7175C43.7365 27.4399 43.5747 25.5314 42.3077 24.4555Z" fill="url(#paint0_linear_273_7)"/>
<defs>
<linearGradient id="paint0_linear_273_7" x1="63" y1="0" x2="-0.264896" y2="62.2272" gradientUnits="userSpaceOnUse">
<stop stop-color="#6325CF"/>
<stop offset="1" stop-color="#3A1183"/>
</linearGradient>
</defs>
</svg>
